<svg xmlns="http://www.w3.org/2000/svg" id="Logo" width="59.077" height="29.539" viewBox="0 0 200.001 34.898">
  <path id="Path_15262" data-name="Path 15262" d="M232.889,475.458l-5.638,5.651-5.651-5.651,5.651-5.648Z" transform="translate(-198.488 -469.31)" fill="#61dde1"/>
  <path id="Path_15263" data-name="Path 15263" d="M225.65,480.038l-6.16-6.15,6.16-6.148,6.148,6.148Zm-5.163-6.15,5.163,5.153,5.151-5.153-5.151-5.151Z" transform="translate(-196.888 -467.74)" fill="#606060"/>
  <path id="Path_15264" data-name="Path 15264" d="M209.463,498.851,203.8,504.5l-5.651-5.651L203.8,493.2Z" transform="translate(-180.701 -487.052)" fill="#fff"/>
  <path id="Path_15265" data-name="Path 15265" d="M202.238,503.436l-6.148-6.148,6.148-6.148,6.146,6.148Zm-5.151-6.148,5.151,5.153,5.153-5.153-5.153-5.151Z" transform="translate(-179.138 -485.49)" fill="#606060"/>
  <rect id="Rectangle_3321" data-name="Rectangle 3321" width="7.99" height="7.99" transform="translate(11.801 17.449) rotate(-45)" fill="#ffb94d"/>
  <path id="Path_15266" data-name="Path 15266" d="M178.838,526.836l-6.148-6.148,6.148-6.148,6.15,6.148Zm-5.151-6.148,5.151,5.151,5.153-5.151-5.153-5.151Z" transform="translate(-161.388 -503.238)" fill="#606060"/>
  <rect id="Rectangle_3322" data-name="Rectangle 3322" width="7.99" height="7.99" transform="translate(6.149 23.1) rotate(-45)" fill="#fff"/>
  <path id="Path_15267" data-name="Path 15267" d="M155.44,550.236l-6.15-6.148,6.15-6.148,6.148,6.148Zm-5.153-6.148,5.153,5.151,5.151-5.151-5.151-5.153Z" transform="translate(-143.638 -520.988)" fill="#606060"/>
  <rect id="Rectangle_3323" data-name="Rectangle 3323" width="7.99" height="7.99" transform="translate(28.749 11.801) rotate(-45)" fill="#fff"/>
  <path id="Path_15268" data-name="Path 15268" d="M249.038,503.436l-6.148-6.148,6.148-6.148,6.148,6.148Zm-5.156-6.148,5.153,5.153,5.151-5.153-5.151-5.151Z" transform="translate(-214.636 -485.49)" fill="#606060"/>
  <rect id="Rectangle_3324" data-name="Rectangle 3324" width="7.99" height="7.99" transform="translate(23.102 17.451) rotate(-45)" fill="#ffb94d"/>
  <path id="Path_15269" data-name="Path 15269" d="M225.65,526.836l-6.16-6.148,6.16-6.148,6.136,6.148Zm-5.163-6.148,5.163,5.151,5.139-5.151-5.139-5.151Z" transform="translate(-196.888 -503.238)" fill="#606060"/>
  <rect id="Rectangle_3325" data-name="Rectangle 3325" width="7.99" height="7.99" transform="translate(17.452 23.1) rotate(-45)" fill="#fff"/>
  <path id="Path_15270" data-name="Path 15270" d="M202.238,550.236l-6.148-6.148,6.148-6.148,6.146,6.148Zm-5.151-6.148,5.151,5.151,5.153-5.151-5.153-5.153Z" transform="translate(-179.138 -520.988)" fill="#606060"/>
  <rect id="Rectangle_3326" data-name="Rectangle 3326" width="7.99" height="7.99" transform="translate(34.401 17.451) rotate(-45)" fill="#ffb94d"/>
  <path id="Path_15271" data-name="Path 15271" d="M272.43,526.836l-6.15-6.148,6.15-6.148,6.148,6.148Zm-5.153-6.148,5.153,5.151,5.151-5.151-5.151-5.151Z" transform="translate(-232.378 -503.238)" fill="#606060"/>
  <rect id="Rectangle_3327" data-name="Rectangle 3327" width="7.99" height="7.99" transform="translate(28.749 23.1) rotate(-45)" fill="#fff"/>
  <path id="Path_15272" data-name="Path 15272" d="M249.038,550.236l-6.148-6.148,6.148-6.148,6.148,6.148Zm-5.156-6.148,5.153,5.151,5.151-5.151-5.151-5.153Z" transform="translate(-214.636 -520.988)" fill="#606060"/>
  <rect id="Rectangle_3328" data-name="Rectangle 3328" width="7.99" height="7.99" transform="translate(40.049 23.1) rotate(-45)" fill="#fff"/>
  <path id="Path_15273" data-name="Path 15273" d="M295.828,550.236l-6.148-6.148,6.148-6.148,6.15,6.148Zm-5.151-6.148,5.151,5.151,5.153-5.151-5.153-5.153Z" transform="translate(-250.128 -520.988)" fill="#606060"/>
  <path id="Path_15274" data-name="Path 15274" d="M326.441,569.051l-5.65,5.648-5.651-5.648,5.651-5.651Z" transform="translate(-269.441 -540.301)" fill="#61dde1"/>
  <path id="Path_15275" data-name="Path 15275" d="M319.228,573.628l-6.148-6.148,6.148-6.15,6.148,6.15Zm-5.151-6.148,5.151,5.151,5.153-5.151-5.153-5.153Z" transform="translate(-267.878 -538.73)" fill="#606060"/>
  <rect id="Rectangle_3329" data-name="Rectangle 3329" width="7.99" height="7.99" transform="translate(34.399 28.748) rotate(-45)" fill="#61dde1"/>
  <path id="Path_15276" data-name="Path 15276" d="M272.43,573.628l-6.15-6.148,6.15-6.15,6.148,6.15Zm-5.153-6.148,5.153,5.151,5.151-5.151-5.151-5.153Z" transform="translate(-232.378 -538.73)" fill="#606060"/>
  <rect id="Rectangle_3330" data-name="Rectangle 3330" width="7.99" height="7.99" transform="translate(23.1 28.748) rotate(-45)" fill="#61dde1"/>
  <path id="Path_15277" data-name="Path 15277" d="M225.65,573.628l-6.16-6.148,6.16-6.15,6.148,6.15Zm-5.163-6.148,5.163,5.151,5.151-5.151-5.151-5.153Z" transform="translate(-196.888 -538.73)" fill="#606060"/>
  <rect id="Rectangle_3331" data-name="Rectangle 3331" width="7.99" height="7.99" transform="translate(11.801 28.748) rotate(-45)" fill="#61dde1"/>
  <path id="Path_15278" data-name="Path 15278" d="M178.838,573.628l-6.148-6.148,6.148-6.15,6.15,6.15Zm-5.151-6.148,5.151,5.151,5.153-5.151-5.153-5.153Z" transform="translate(-161.388 -538.73)" fill="#606060"/>
  <rect id="Rectangle_3332" data-name="Rectangle 3332" width="7.99" height="7.99" transform="translate(0.499 28.748) rotate(-45)" fill="#61dde1"/>
  <path id="Path_15279" data-name="Path 15279" d="M132.04,573.628l-6.15-6.148,6.15-6.15,6.148,6.15Zm-5.158-6.148,5.153,5.151,5.151-5.151-5.151-5.153Z" transform="translate(-125.89 -538.73)" fill="#606060"/>
</svg>
